# xmcd
#
# Track frame offsets: 
#        150
#        25800
#        49927
#        74532
#        94664
#        114310
#        141510
#        165998
#        191278
#        210778
#        229398
#        248264
#        265675
#        283726
#        317191
#
# Disc length: 4645 seconds
#
# Revision: 0
# Processed by: cddbd v1.5.2PL0 Copyright (c) Steve Scherf et al.
# Submitted via: ExactAudioCopy v0.99pb4
#
DISCID=cb12230f
DTITLE=Change - Sharing Your Love
DYEAR=1982
DGENRE=R&B
TTITLE0=The Very Best In You
TTITLE1=Hard Times (It's Gonna Be Alright)
TTITLE2=Oh What A Night
TTITLE3=Promise Your Love
TTITLE4=Everything And More
TTITLE5=Sharing Your Love
TTITLE6=Take You To Heaven
TTITLE7=Keep On It
TTITLE8=You're My Number 1
TTITLE9=You're My Girl
TTITLE10=The Very Best In You (Single Version)
TTITLE11=Hard Times (It's Gonna Be Alright) (Single Version)
TTITLE12=Sharing Your Love (Single Version)
TTITLE13=Oh What A Night (Extended Version)
TTITLE14=The Very Best In You (Extended Version)
EXTD=
EXTT0=
EXTT1=
EXTT2=
EXTT3=
EXTT4=
EXTT5=
EXTT6=
EXTT7=
EXTT8=
EXTT9=
EXTT10=
EXTT11=
EXTT12=
EXTT13=
EXTT14=
PLAYORDER=
